<?xml version="1.0" encoding="UTF-8" standalone="no"?>
<!-- Created with Inkscape (http://www.inkscape.org/) -->

<svg
   width="8.2679996in"
   height="9in"
   viewBox="0 0 210.00719 228.6"
   version="1.1"
   id="svg499"
   xml:space="preserve"
   inkscape:version="1.2.2 (732a01da63, 2022-12-09)"
   sodipodi:docname="SSPMA_Layout3.svg"
   xmlns:inkscape="http://www.inkscape.org/namespaces/inkscape"
   xmlns:sodipodi="http://sodipodi.sourceforge.net/DTD/sodipodi-0.dtd"
   xmlns="http://www.w3.org/2000/svg"
   xmlns:svg="http://www.w3.org/2000/svg"><sodipodi:namedview
     id="namedview501"
     pagecolor="#ffffff"
     bordercolor="#000000"
     borderopacity="0.25"
     inkscape:showpageshadow="2"
     inkscape:pageopacity="0.0"
     inkscape:pagecheckerboard="0"
     inkscape:deskcolor="#d1d1d1"
     inkscape:document-units="mm"
     showgrid="false"
     inkscape:zoom="1.3266287"
     inkscape:cx="517.10023"
     inkscape:cy="417.59989"
     inkscape:window-width="3440"
     inkscape:window-height="1369"
     inkscape:window-x="-8"
     inkscape:window-y="-8"
     inkscape:window-maximized="1"
     inkscape:current-layer="layer1" /><defs
     id="defs496"><clipPath
       clipPathUnits="userSpaceOnUse"
       id="clipPath338"><path
         d="M 0,106.01 H 222.667 V 0 H 0 Z"
         id="path336" /></clipPath><clipPath
       clipPathUnits="userSpaceOnUse"
       id="clipPath795"><path
         d="M 0,106.01 H 222.667 V 0 H 0 Z"
         id="path793" /></clipPath><clipPath
       clipPathUnits="userSpaceOnUse"
       id="clipPath38023"><path
         d="M 0,106.01 H 222.667 V 0 H 0 Z"
         id="path38021" /></clipPath></defs><g
     inkscape:label="Layer 1"
     inkscape:groupmode="layer"
     id="layer1"><rect
       style="fill:#f5f5f5;fill-opacity:1;stroke-width:0.484981;stroke-linecap:square;stroke-miterlimit:5;stroke-dashoffset:0.03;paint-order:fill markers stroke"
       id="rect8619"
       width="210.00719"
       height="200.92336"
       x="1.4010697e-08"
       y="28.075516" /><rect
       style="fill:#ffffff;fill-opacity:1;stroke:#afafae;stroke-width:0.114565;stroke-linecap:square;stroke-linejoin:round;stroke-miterlimit:6;stroke-dasharray:none;stroke-dashoffset:0.03;stroke-opacity:1;paint-order:fill markers stroke"
       id="rect41168-0-8-2"
       width="13.046491"
       height="7.3778572"
       x="126.32549"
       y="143.0652"
       rx="0.21153848"
       ry="0.21153845" /><g
       id="g872"
       transform="translate(0,8.9958338)"><rect
         style="fill:none;fill-opacity:1;stroke:#8a8a88;stroke-width:0.115;stroke-linecap:square;stroke-linejoin:round;stroke-miterlimit:6;stroke-dasharray:none;stroke-dashoffset:0.03;stroke-opacity:1;paint-order:fill markers stroke"
         id="rect41168-6"
         width="12.931945"
         height="7.6770182"
         x="82.047539"
         y="169.20094"
         rx="0.56937283"
         ry="0.56937283" /><text
         xml:space="preserve"
         style="font-style:normal;font-variant:normal;font-weight:bold;font-stretch:normal;font-size:3.43958px;line-height:1.15;font-family:Bahnschrift;-inkscape-font-specification:'Bahnschrift Bold';fill:#231f20;fill-opacity:1;stroke:#8a8a88;stroke-width:0.114565;stroke-linecap:square;stroke-linejoin:round;stroke-miterlimit:6;stroke-dasharray:none;stroke-dashoffset:0.03;stroke-opacity:1;paint-order:fill markers stroke"
         x="84.462181"
         y="174.26044"
         id="text15024-5"><tspan
           sodipodi:role="line"
           id="tspan15022-1"
           style="font-style:normal;font-variant:normal;font-weight:normal;font-stretch:normal;font-size:3.43958px;font-family:Bahnschrift;-inkscape-font-specification:Bahnschrift;fill:#231f20;fill-opacity:1;stroke:none;stroke-width:0.114565"
           x="84.462181"
           y="174.26044">Back</tspan></text></g><g
       id="g867"
       transform="translate(0,8.9958338)"><rect
         style="fill:#254676;fill-opacity:1;stroke:none;stroke-width:0.115;stroke-linecap:square;stroke-linejoin:round;stroke-miterlimit:6;stroke-dasharray:none;stroke-dashoffset:0.03;stroke-opacity:1;paint-order:fill markers stroke"
         id="rect41168-6-5"
         width="18.934105"
         height="7.6770182"
         x="99.936119"
         y="169.20094"
         rx="0.56937283"
         ry="0.56937283" /><text
         xml:space="preserve"
         style="font-style:normal;font-variant:normal;font-weight:bold;font-stretch:normal;font-size:3.43958px;line-height:1.15;font-family:Bahnschrift;-inkscape-font-specification:'Bahnschrift Bold';fill:#ffffff;fill-opacity:1;stroke:#8a8a88;stroke-width:0.114565;stroke-linecap:square;stroke-linejoin:round;stroke-miterlimit:6;stroke-dasharray:none;stroke-dashoffset:0.03;stroke-opacity:1;paint-order:fill markers stroke"
         x="102.58447"
         y="174.26044"
         id="text15024-5-5"><tspan
           sodipodi:role="line"
           id="tspan15022-1-7"
           style="font-style:normal;font-variant:normal;font-weight:normal;font-stretch:normal;font-size:3.43958px;font-family:Bahnschrift;-inkscape-font-specification:Bahnschrift;stroke:none;stroke-width:0.114565"
           x="102.58447"
           y="174.26044">Continue</tspan></text></g><text
       xml:space="preserve"
       style="font-style:normal;font-variant:normal;font-weight:bold;font-stretch:normal;font-size:3.43958px;line-height:1.15;font-family:Bahnschrift;-inkscape-font-specification:'Bahnschrift Bold';fill:#ffffff;fill-opacity:1;stroke:#8a8a88;stroke-width:0.114565;stroke-linecap:square;stroke-linejoin:round;stroke-miterlimit:6;stroke-dasharray:none;stroke-dashoffset:0.03;stroke-opacity:1;paint-order:fill markers stroke"
       x="109.32703"
       y="175.46895"
       id="text15024-3"><tspan
         sodipodi:role="line"
         id="tspan15022-0"
         style="font-style:normal;font-variant:normal;font-weight:normal;font-stretch:normal;font-size:3.43958px;font-family:Bahnschrift;-inkscape-font-specification:Bahnschrift;stroke:none;stroke-width:0.114565"
         x="109.32703"
         y="175.46895" /></text><rect
       style="display:none;fill:#292b42;fill-opacity:1;stroke-width:0.484981;stroke-linecap:square;stroke-miterlimit:5;stroke-dashoffset:0.03;paint-order:fill markers stroke"
       id="rect1162"
       width="210"
       height="14.359706"
       x="0"
       y="28.048479" /><rect
       style="display:none;fill:#f5f5f5;fill-opacity:1;stroke-width:0.484981;stroke-linecap:square;stroke-miterlimit:5;stroke-dashoffset:0.03;paint-order:fill markers stroke"
       id="rect1162-0"
       width="210"
       height="14.359706"
       x="7.1054274e-15"
       y="27.676638" /><rect
       style="fill:#254676;fill-opacity:1;stroke-width:0.484981;stroke-linecap:square;stroke-miterlimit:5;stroke-dashoffset:0.03;paint-order:fill markers stroke"
       id="rect1162-0-2"
       width="210"
       height="16.340385"
       x="1.0658141e-14"
       y="25.695959" /><rect
       style="fill:#254676;fill-opacity:1;stroke-width:0.484981;stroke-linecap:square;stroke-miterlimit:5;stroke-dashoffset:0.03;paint-order:fill markers stroke"
       id="rect8134"
       width="210"
       height="28.810646"
       x="0.0071910857"
       y="199.78935" /><text
       xml:space="preserve"
       style="font-style:normal;font-variant:normal;font-weight:bold;font-stretch:normal;font-size:4.23333px;line-height:1.15;font-family:Bahnschrift;-inkscape-font-specification:'Bahnschrift Bold';fill:#292b35;fill-opacity:1;stroke-width:0.484981;stroke-linecap:square;stroke-miterlimit:5;stroke-dashoffset:0.03;paint-order:fill markers stroke"
       x="47.795551"
       y="15.749343"
       id="text9366"><tspan
         sodipodi:role="line"
         id="tspan9364"
         style="font-style:normal;font-variant:normal;font-weight:bold;font-stretch:normal;font-size:4.23333px;font-family:Bahnschrift;-inkscape-font-specification:'Bahnschrift Bold';fill:#292b35;fill-opacity:1;stroke-width:0.484981"
         x="47.795551"
         y="15.749343">Sump and Sewage Pump Manufacturers Association</tspan></text><text
       xml:space="preserve"
       style="font-style:normal;font-variant:normal;font-weight:bold;font-stretch:normal;font-size:4.7625px;line-height:1.15;font-family:Bahnschrift;-inkscape-font-specification:'Bahnschrift Bold';opacity:1;fill:#ffffff;fill-opacity:1;stroke:#8a8a88;stroke-width:0.114565;stroke-linecap:square;stroke-linejoin:round;stroke-miterlimit:6;stroke-dasharray:none;stroke-dashoffset:0.03;stroke-opacity:1;paint-order:fill markers stroke"
       x="155.36404"
       y="34.856491"
       id="text14750"><tspan
         sodipodi:role="line"
         id="tspan14748"
         style="stroke-width:0.114565;fill:#ffffff"
         x="155.36404"
         y="34.856491" /></text><text
       xml:space="preserve"
       style="font-style:normal;font-variant:normal;font-weight:bold;font-stretch:normal;font-size:3.43958px;line-height:1.15;font-family:Bahnschrift;-inkscape-font-specification:'Bahnschrift Bold';fill:#ffffff;fill-opacity:1;stroke:#8a8a88;stroke-width:0.114565;stroke-linecap:square;stroke-linejoin:round;stroke-miterlimit:6;stroke-dasharray:none;stroke-dashoffset:0.03;stroke-opacity:1;paint-order:fill markers stroke"
       x="178.99246"
       y="35.194069"
       id="text15024-4"><tspan
         sodipodi:role="line"
         id="tspan15022-5"
         style="font-style:normal;font-variant:normal;font-weight:normal;font-stretch:normal;font-size:3.43958px;font-family:Bahnschrift;-inkscape-font-specification:Bahnschrift;stroke:none;stroke-width:0.114565"
         x="178.99246"
         y="35.194069">Print</tspan></text><text
       xml:space="preserve"
       style="font-style:normal;font-variant:normal;font-weight:bold;font-stretch:normal;font-size:3.43958px;line-height:1.15;font-family:Bahnschrift;-inkscape-font-specification:'Bahnschrift Bold';fill:#ffffff;fill-opacity:1;stroke:#8a8a88;stroke-width:0.114565;stroke-linecap:square;stroke-linejoin:round;stroke-miterlimit:6;stroke-dasharray:none;stroke-dashoffset:0.03;stroke-opacity:1;paint-order:fill markers stroke"
       x="196.37225"
       y="35.206665"
       id="text15024-2"><tspan
         sodipodi:role="line"
         id="tspan15022-9"
         style="font-style:normal;font-variant:normal;font-weight:normal;font-stretch:normal;font-size:3.43958px;font-family:Bahnschrift;-inkscape-font-specification:Bahnschrift;stroke:none;stroke-width:0.114565"
         x="196.37225"
         y="35.206665">Help</tspan></text><text
       xml:space="preserve"
       style="font-style:normal;font-variant:normal;font-weight:bold;font-stretch:normal;font-size:3.43958px;line-height:1.15;font-family:Bahnschrift;-inkscape-font-specification:'Bahnschrift Bold';fill:#ffffff;fill-opacity:1;stroke:#8a8a88;stroke-width:0.114565;stroke-linecap:square;stroke-linejoin:round;stroke-miterlimit:6;stroke-dasharray:none;stroke-dashoffset:0.03;stroke-opacity:1;paint-order:fill markers stroke"
       x="6.6603684"
       y="34.856491"
       id="text15024-8"><tspan
         sodipodi:role="line"
         id="tspan15022-4"
         style="font-style:normal;font-variant:normal;font-weight:normal;font-stretch:normal;font-size:3.43958px;font-family:Bahnschrift;-inkscape-font-specification:Bahnschrift;stroke:none;stroke-width:0.114565"
         x="6.6603684"
         y="34.856491">About</tspan></text><text
       xml:space="preserve"
       style="font-style:normal;font-variant:normal;font-weight:normal;font-stretch:normal;font-size:3.43958px;line-height:1.15;font-family:Bahnschrift;-inkscape-font-specification:Bahnschrift;opacity:1;fill:#ffffff;fill-opacity:1;stroke:none;stroke-width:0.114565;stroke-linecap:square;stroke-linejoin:round;stroke-miterlimit:6;stroke-dasharray:none;stroke-dashoffset:0.03;stroke-opacity:1;paint-order:fill markers stroke"
       x="87.153847"
       y="109.17674"
       id="text21453"><tspan
         sodipodi:role="line"
         id="tspan21451"
         style="stroke-width:0.114565;fill:#ffffff"
         x="87.153847"
         y="109.17674" /></text><g
       id="g34672"
       transform="matrix(0.9210111,0,0,0.9210111,14.546943,16.345046)"
       style="stroke-width:1.08576"><rect
         style="fill:#a9a9a9;fill-opacity:1;stroke:none;stroke-width:0.124389;stroke-linecap:square;stroke-linejoin:round;stroke-miterlimit:6;stroke-dasharray:none;stroke-dashoffset:0.03;stroke-opacity:1;paint-order:fill markers stroke"
         id="rect10574-0"
         width="7.7447238"
         height="7.6003428"
         x="184.16438"
         y="206.92838"
         ry="0.78473914"
         rx="0.78473914" /><path
         style="fill:#ffffff;stroke-width:0.12439;stroke-linecap:square;stroke-linejoin:round;stroke-miterlimit:6;stroke-dashoffset:0.03;paint-order:fill markers stroke"
         d="m 187.4873,213.09676 c -0.007,-0.009 -0.0122,-0.47788 -0.0142,-1.04203 l -0.003,-1.02571 -0.3549,-0.009 c -0.19521,-0.006 -0.35703,-0.0113 -0.35963,-0.0139 -0.002,-0.002 -0.008,-0.19608 -0.0122,-0.43 l -0.007,-0.4253 h 0.3598 0.35981 l 0.007,-0.0946 c 0.003,-0.052 0.01,-0.24782 0.0142,-0.43507 0.008,-0.37782 0.0169,-0.45014 0.0753,-0.59267 0.12734,-0.3108 0.39209,-0.55315 0.71514,-0.65459 0.0929,-0.0292 0.1136,-0.0305 0.46273,-0.029 0.32596,0.002 0.55948,0.0164 0.59462,0.0381 0.007,0.004 0.0123,0.1661 0.0123,0.38973 v 0.38214 l -0.27734,0.008 c -0.15252,0.004 -0.29812,0.0143 -0.32354,0.0215 -0.0912,0.026 -0.19016,0.12341 -0.20941,0.20626 -0.007,0.0268 -0.0114,0.20816 -0.0116,0.4032 l -2.7e-4,0.35462 0.39045,0.004 c 0.21476,0.002 0.39419,0.008 0.39875,0.0126 0.004,0.004 -0.0156,0.17195 -0.0448,0.37194 -0.07,0.48022 -0.0659,0.4587 -0.0902,0.46854 -0.0117,0.004 -0.16368,0.0117 -0.33774,0.0158 l -0.31648,0.007 v 1.04216 1.04215 h -0.50819 c -0.39224,0 -0.51062,-0.003 -0.51878,-0.0164 z"
         id="path25192" /></g><g
       id="g28237"
       transform="matrix(0.9210111,0,0,0.9210111,8.5900979,16.829546)"
       style="stroke-width:1.08576"><rect
         style="fill:#a9a9a9;fill-opacity:1;stroke:none;stroke-width:0.124389;stroke-linecap:square;stroke-linejoin:round;stroke-miterlimit:6;stroke-dasharray:none;stroke-dashoffset:0.03;stroke-opacity:1;paint-order:fill markers stroke"
         id="rect10574-0-9"
         width="7.7447238"
         height="7.6003428"
         x="180.16611"
         y="206.40233"
         ry="0.78473914"
         rx="0.78473914" /><g
         id="g27796"
         transform="matrix(0.01006598,0,0,0.01006598,196.33141,202.12719)"
         style="stroke-width:28.5392"><path
           style="fill:#ffffff;stroke-width:12.3575;stroke-linecap:square;stroke-linejoin:round;stroke-miterlimit:6;stroke-dashoffset:0.03;paint-order:fill markers stroke"
           d="m -1381.1792,682.27212 c -7.4422,-1.87777 -13.3514,-5.73014 -20.5337,-13.38654 -7.5614,-8.06049 -9.842,-15.83027 -9.0032,-30.67369 0.7975,-14.11509 5.3746,-21.88267 18.4945,-31.38668 6.6684,-4.83057 8.8442,-5.3757 21.4563,-5.3757 12.362,0 15.0428,0.63892 22.4853,5.35878 20.0733,12.73012 25.6602,41.06424 11.7086,59.38003 -3.2225,4.23051 -9.1212,9.49434 -13.1083,11.69739 -8.2585,4.56333 -22.7825,6.58584 -31.4995,4.38641 z"
           id="path27776" /><path
           style="fill:#ffffff;stroke-width:12.3575;stroke-linecap:square;stroke-linejoin:round;stroke-miterlimit:6;stroke-dashoffset:0.03;paint-order:fill markers stroke"
           d="M -1412.8562,854.49839 V 705.9697 h 42.1748 42.1748 v 148.52869 148.52871 h -42.1748 -42.1748 z"
           id="path27778" /><path
           style="fill:#ffffff;stroke-width:12.3575;stroke-linecap:square;stroke-linejoin:round;stroke-miterlimit:6;stroke-dashoffset:0.03;paint-order:fill markers stroke"
           d="M -1284.4981,854.49839 V 705.9697 h 42.1748 42.1748 l 0.022,19.71214 0.022,19.71214 4.6926,-8.25159 c 13.749,-24.17701 29.2587,-30.24281 74.347,-29.07693 26.4266,0.68333 26.7066,0.7354 40.4338,7.51974 22.3276,11.0349 34.2569,26.48264 42.8443,55.48041 4.4317,14.96508 5.0291,20.69025 6.41,61.42853 0.8376,24.70894 1.5764,73.18705 1.642,107.72914 l 0.119,62.80382 h -42.1748 -42.1748 v -85.93305 c 0,-49.89537 -0.7727,-90.00749 -1.8425,-95.64869 -3.7601,-19.82699 -17.2333,-29.49609 -41.1005,-29.49609 -20.4773,0 -30.7576,5.21009 -38.3928,19.45746 -3.8454,7.17575 -3.9429,9.33224 -4.497,99.47755 l -0.5663,92.14282 h -42.0669 -42.0669 z"
           id="path27780" /></g></g><g
       id="g30265"
       transform="matrix(0.73118442,0,0,0.73118442,73.723116,13.914351)"
       style="stroke-width:1.36765"><rect
         style="fill:#a9a9a9;fill-opacity:1;stroke:none;stroke-width:0.156683;stroke-linecap:square;stroke-linejoin:round;stroke-miterlimit:6;stroke-dasharray:none;stroke-dashoffset:0.03;stroke-opacity:1;paint-order:fill markers stroke"
         id="rect10574-4-1"
         width="33.485271"
         height="10.131963"
         x="-80.762993"
         y="45.192993"
         ry="0"
         rx="0" /><text
         xml:space="preserve"
         style="font-style:normal;font-variant:normal;font-weight:bold;font-stretch:normal;font-size:3.43958px;line-height:1.15;font-family:Bahnschrift;-inkscape-font-specification:'Bahnschrift Bold';fill:#ffffff;fill-opacity:1;stroke:#8a8a88;stroke-width:0.156685;stroke-linecap:square;stroke-linejoin:round;stroke-miterlimit:6;stroke-dasharray:none;stroke-dashoffset:0.03;stroke-opacity:1;paint-order:fill markers stroke"
         x="-70.422729"
         y="51.467361"
         id="text15024-1-4"><tspan
           sodipodi:role="line"
           id="tspan15022-2-8"
           style="font-style:normal;font-variant:normal;font-weight:normal;font-stretch:normal;font-size:3.43958px;font-family:Bahnschrift;-inkscape-font-specification:Bahnschrift;stroke:none;stroke-width:0.156685"
           x="-70.422729"
           y="51.467361">Fixture Units</tspan></text><circle
         style="fill:#ffffff;fill-opacity:1;stroke:none;stroke-width:0.156685;stroke-linecap:square;stroke-linejoin:round;stroke-miterlimit:6;stroke-dasharray:none;stroke-dashoffset:0.03;stroke-opacity:1;paint-order:fill markers stroke"
         id="path29765-3"
         cx="-75.838478"
         cy="50.258976"
         r="2.9104166" /><text
         xml:space="preserve"
         style="font-style:normal;font-variant:normal;font-weight:bold;font-stretch:normal;font-size:4.23333px;line-height:1.15;font-family:Bahnschrift;-inkscape-font-specification:'Bahnschrift Bold';fill:#254676;fill-opacity:1;stroke:none;stroke-width:0.156685;stroke-linecap:square;stroke-linejoin:round;stroke-miterlimit:6;stroke-dasharray:none;stroke-dashoffset:0.03;stroke-opacity:1;paint-order:fill markers stroke"
         x="-76.641869"
         y="51.761726"
         id="text29769-2"><tspan
           sodipodi:role="line"
           id="tspan29767-0"
           style="fill:#254676;fill-opacity:1;stroke-width:0.156685"
           x="-76.641869"
           y="51.761726">1</tspan></text></g><g
       id="g34678"
       transform="matrix(0.9210111,0,0,0.9210111,15.30834,16.345047)"
       style="stroke-width:1.08576"><rect
         style="fill:#a9a9a9;fill-opacity:1;stroke:none;stroke-width:0.124389;stroke-linecap:square;stroke-linejoin:round;stroke-miterlimit:6;stroke-dasharray:none;stroke-dashoffset:0.03;stroke-opacity:1;paint-order:fill markers stroke"
         id="rect10574-0-5"
         width="7.7447238"
         height="7.6003428"
         x="193.80368"
         y="206.92839"
         ry="0.78473914"
         rx="0.78473914" /><g
         id="g34249"
         transform="matrix(0.07169986,0,0,0.07169986,202.81359,205.46593)"
         style="stroke-width:4.00663"><path
           style="fill:#ffffff;stroke-width:1.73487;stroke-linecap:square;stroke-linejoin:round;stroke-miterlimit:6;stroke-dashoffset:0.03;paint-order:fill markers stroke"
           d="m -85.139036,62.469153 c -7.39852,-4.448534 -15.072754,-9.062767 -17.053844,-10.253852 l -3.60199,-2.165608 17.097629,-0.08518 c 9.403694,-0.04685 24.782994,-0.04685 34.17622,0 l 17.078596,0.08518 -6.168948,3.708026 c -7.066355,4.24744 -26.420107,15.835671 -27.412464,16.413456 l -0.663343,0.386222 z"
           id="path34243" /><path
           style="fill:#ffffff;stroke-width:1.73487;stroke-linecap:square;stroke-linejoin:round;stroke-miterlimit:6;stroke-dashoffset:0.03;paint-order:fill markers stroke"
           d="m -112.20674,78.145403 c 0.008,-10.296822 0.0443,-20.429091 0.0808,-22.516153 l 0.0663,-3.794659 14.115196,8.460939 c 18.313136,10.977268 23.473634,14.004866 25.561194,14.996429 l 0.778784,0.369912 1.245353,-0.659745 c 3.016953,-1.598274 9.99789,-5.70002 25.265852,-14.845297 11.236717,-6.730624 13.761068,-8.221518 13.920494,-8.221518 0.04783,0 0.08695,10.109607 0.08695,22.465794 v 22.465793 h -40.567728 -40.567735 z"
           id="path34245" /></g></g><text
       xml:space="preserve"
       style="font-style:normal;font-variant:normal;font-weight:300;font-stretch:normal;font-size:3.43958px;line-height:1.15;font-family:Bahnschrift;-inkscape-font-specification:'Bahnschrift Light';opacity:1;fill:#ffffff;fill-opacity:1;stroke:#fffffe;stroke-width:0.114565;stroke-linecap:square;stroke-linejoin:round;stroke-miterlimit:6;stroke-dasharray:none;stroke-dashoffset:0.03;stroke-opacity:1;paint-order:fill markers stroke"
       x="149.98895"
       y="212.13387"
       id="text36627"><tspan
         sodipodi:role="line"
         id="tspan36625"
         style="font-style:normal;font-variant:normal;font-weight:300;font-stretch:normal;font-size:3.43958px;font-family:Bahnschrift;-inkscape-font-specification:'Bahnschrift Light';stroke-width:0.114565"
         x="149.98895"
         y="212.13387">Follow Us On:</tspan></text><g
       id="g401"
       transform="matrix(0.93333333,0,0,0.93333333,0.37534129,1.6595441)"
       style="stroke-width:1.07143"><rect
         style="fill:#a9a9a9;fill-opacity:1;stroke:none;stroke-width:0.122747;stroke-linecap:square;stroke-linejoin:round;stroke-miterlimit:6;stroke-dasharray:none;stroke-dashoffset:0.03;stroke-opacity:1;paint-order:fill markers stroke"
         id="rect10574-4-1-3"
         width="8.7087917"
         height="7.9375"
         x="5.6301193"
         y="48.534878"
         ry="0"
         rx="0" /><path
         style="fill:#ffffff;fill-opacity:1;stroke-width:0.283481"
         d="m 8.4533799,54.492295 c -0.050969,-0.03107 -0.047723,0.03541 -0.047723,-0.977318 v -0.917151 l -0.2746549,-1.5e-5 c -0.2463593,-8e-6 -0.2773659,-0.0014 -0.3010167,-0.01326 -0.05128,-0.02576 -0.07393,-0.08572 -0.051299,-0.13576 0.00524,-0.01149 0.4850967,-0.448584 1.0664158,-0.971264 0.5813192,-0.522679 1.0628712,-0.955443 1.0701252,-0.961697 0.02084,-0.018 0.08496,-0.0212 0.1089957,-0.0055 0.02299,0.01507 2.135241,1.894486 2.158394,1.92048 0.02359,0.02651 0.02144,0.0984 -0.0037,0.125396 -0.03894,0.04167 -0.0381,0.04157 -0.332996,0.04157 h -0.273142 l -1.79e-4,0.744405 c -2.71e-4,1.067026 -4.58e-4,1.089133 -0.01726,1.114471 -0.0074,0.01149 -0.02455,0.0275 -0.03788,0.03562 -0.02322,0.01414 -0.04107,0.01476 -0.425776,0.01475 -0.380641,-2.2e-5 -0.402689,-7.58e-4 -0.423221,-0.01431 -0.0119,-0.0079 -0.02808,-0.02403 -0.03595,-0.03593 -0.01375,-0.02085 -0.01429,-0.04971 -0.01434,-0.772154 l -4.5e-5,-0.750495 -0.01987,-0.03989 c -0.01296,-0.02599 -0.03059,-0.04695 -0.05058,-0.0602 l -0.03073,-0.02033 H 9.9854113 9.4538447 l -0.030225,0.02094 c -0.016619,0.01149 -0.038478,0.03539 -0.048599,0.05303 l -0.018366,0.03209 -0.00365,0.761454 c -0.00325,0.609521 -0.00577,0.764935 -0.013744,0.778906 -0.00552,0.0096 -0.020843,0.02407 -0.034116,0.03217 -0.023085,0.01409 -0.041402,0.01472 -0.4256991,0.01472 -0.3849407,0 -0.4025696,-5.96e-4 -0.4258179,-0.01479 z"
         id="path37638"
         sodipodi:nodetypes="cscccssssscsccsscssccsscccsscsssscc" /></g><g
       id="g38017"
       transform="matrix(0.1867404,0,0,-0.1867404,5.8802595,22.97697)"
       style="stroke-width:1.88913"><g
         id="g38019"
         clip-path="url(#clipPath38023)"
         style="stroke-width:1.88913"><g
           id="g38025"
           transform="translate(111.4216,95.718)"
           style="stroke-width:1.88913"><path
             d="m 0,0 c -35.719,0 -69.75,-3.791 -95.821,-10.674 l -2.875,-0.759 v -2.973 -56.439 -2.973 l 2.875,-0.759 C -69.75,-81.459 -35.719,-85.25 0,-85.25 c 35.719,0 69.749,3.791 95.82,10.673 l 2.874,0.759 v 2.973 56.439 2.973 l -2.874,0.759 C 69.749,-3.791 35.719,0 0,0 m 0,-3.86 c 36.708,0 70.071,-4.008 94.836,-10.546 V -70.845 C 70.071,-77.383 36.708,-81.391 0,-81.391 c -36.708,0 -70.072,4.008 -94.836,10.546 v 56.439 C -70.072,-7.868 -36.708,-3.86 0,-3.86"
             style="fill:#231f20;fill-opacity:1;fill-rule:nonzero;stroke:none;stroke-width:1.88913"
             id="path38027" /></g><g
           id="g38029"
           transform="translate(54.5026,48.0427)"
           style="stroke-width:1.88913"><path
             d="m 0,0 5.58,6.668 c 3.616,-2.844 7.543,-4.342 11.727,-4.342 2.738,0 4.185,0.93 4.185,2.478 v 0.105 c 0,1.549 -1.188,2.327 -6.148,3.513 C 7.646,10.18 1.706,12.347 1.706,19.738 v 0.101 c 0,6.718 5.321,11.574 14,11.574 6.148,0 10.952,-1.654 14.879,-4.805 l -5.012,-7.076 c -3.307,2.373 -6.922,3.563 -10.126,3.563 -2.427,0 -3.615,-0.98 -3.615,-2.325 v -0.102 c 0,-1.653 1.238,-2.376 6.303,-3.513 8.267,-1.809 13.433,-4.497 13.433,-11.266 V 5.79 C 31.568,-1.599 25.729,-5.989 16.947,-5.989 10.54,-5.989 4.495,-3.975 0,0"
             style="fill:#231f20;fill-opacity:1;fill-rule:nonzero;stroke:none;stroke-width:1.88913"
             id="path38031" /></g><g
           id="g38033"
           transform="translate(23.2941,48.0427)"
           style="stroke-width:1.88913"><path
             d="m 0,0 5.58,6.668 c 3.616,-2.844 7.543,-4.342 11.727,-4.342 2.738,0 4.185,0.93 4.185,2.478 v 0.105 c 0,1.549 -1.188,2.327 -6.148,3.513 C 7.646,10.18 1.706,12.347 1.706,19.738 v 0.101 c 0,6.718 5.321,11.574 14,11.574 6.148,0 10.952,-1.654 14.879,-4.805 l -5.012,-7.076 c -3.307,2.373 -6.922,3.563 -10.126,3.563 -2.427,0 -3.615,-0.98 -3.615,-2.325 v -0.102 c 0,-1.653 1.238,-2.376 6.303,-3.513 8.267,-1.809 13.433,-4.497 13.433,-11.266 V 5.79 C 31.568,-1.599 25.729,-5.989 16.947,-5.989 10.54,-5.989 4.495,-3.975 0,0"
             style="fill:#231f20;fill-opacity:1;fill-rule:nonzero;stroke:none;stroke-width:1.88913"
             id="path38035" /></g><g
           id="g38037"
           transform="translate(97.8029,62.3947)"
           style="stroke-width:1.88913"><path
             d="m 0,0 h 1.617 c 6.872,0 9.454,0 9.454,4.509 0,4.656 -2.337,4.706 -9.454,4.706 H 0 Z M -9.606,16.958 H 7.641 c 7.939,0 13.429,-3.676 13.429,-12.155 0,-8.724 -4.705,-12.546 -13.086,-12.546 H 0 v -12.253 h -9.606 z"
             style="fill:#231f20;fill-opacity:1;fill-rule:nonzero;stroke:none;stroke-width:1.88913"
             id="path38039" /></g><g
           id="g38041"
           transform="translate(121.0641,79.2839)"
           style="stroke-width:1.88913"><path
             d="M 0,0 H 10.862 L 19.713,-14.362 28.562,0 H 39.426 V -13.497 L 29.198,-34.42 v 18.629 l -9.485,-14.521 h -0.212 l -9.434,14.467 v -21.25 H 0 Z"
             style="fill:#231f20;fill-opacity:1;fill-rule:nonzero;stroke:none;stroke-width:1.88913"
             id="path38043" /></g><g
           id="g38045"
           transform="translate(181.4997,78.0637)"
           style="stroke-width:1.88913"><path
             d="m 0,0 -5.814,-11.402 5.476,-10.794 h -10.98 l -3.704,-7.263 H 3.343 l 3.168,-6.345 h 11.538 z"
             style="fill:#231f20;fill-opacity:1;fill-rule:nonzero;stroke:none;stroke-width:1.88913"
             id="path38047" /></g><g
           id="g38049"
           transform="translate(180.2487,79.2839)"
           style="stroke-width:1.88913"><path
             d="m 0,0 h -11.296 l -21.301,-43.604 -3.733,5 h -10.857 l 12.381,-16.493 h 6.672 z"
             style="fill:#231f20;fill-opacity:1;fill-rule:nonzero;stroke:none;stroke-width:1.88913"
             id="path38051" /></g><g
           id="g38053"
           transform="translate(70.756,36.1374)"
           style="stroke-width:1.88913"><path
             d="m 0,0 c -0.965,0.997 -2.3,1.608 -3.698,1.608 -2.702,0 -4.889,-2.348 -4.889,-5.017 0,-2.669 2.203,-5.017 4.921,-5.017 1.366,0 2.701,0.643 3.666,1.609 L 0,-8.49 c -1.045,-0.756 -2.332,-1.19 -3.618,-1.19 -3.425,0 -6.319,2.783 -6.319,6.223 0,3.474 2.846,6.319 6.319,6.319 1.351,0 2.541,-0.385 3.618,-1.19 z"
             style="fill:#231f20;fill-opacity:1;fill-rule:nonzero;stroke:none;stroke-width:1.88913"
             id="path38055" /></g><g
           id="g38057"
           transform="translate(73.0383,38.7907)"
           style="stroke-width:1.88913"><path
             d="M 0,0 H 6.287 V -1.254 H 1.351 V -4.856 H 6.142 V -6.11 H 1.351 v -4.76 h 4.936 v -1.254 H 0 Z"
             style="fill:#231f20;fill-opacity:1;fill-rule:nonzero;stroke:none;stroke-width:1.88913"
             id="path38059" /></g><g
           id="g38061"
           transform="translate(82.9748,33.1784)"
           style="stroke-width:1.88913"><path
             d="m 0,0 h 0.418 c 1.528,0 3.071,0.289 3.071,2.171 0,1.994 -1.463,2.187 -3.087,2.187 H 0 Z M 0,-6.512 H -1.351 V 5.612 H 0.402 C 2.701,5.612 4.84,5.001 4.84,2.268 4.84,0.402 3.666,-0.917 1.801,-1.077 L 5.66,-6.512 H 4.004 L 0.338,-1.189 H 0 Z"
             style="fill:#231f20;fill-opacity:1;fill-rule:nonzero;stroke:none;stroke-width:1.88913"
             id="path38063" /></g><g
           id="g38065"
           transform="translate(93.2326,26.6667)"
           style="stroke-width:1.88913"><path
             d="m 0,0 h -1.351 v 10.87 h -2.926 v 1.254 H 2.959 V 10.87 H 0 Z"
             style="fill:#231f20;fill-opacity:1;fill-rule:nonzero;stroke:none;stroke-width:1.88913"
             id="path38067" /></g><path
           d="m 98.956,26.667 h -1.351 v 12.124 h 1.351 z"
           style="fill:#231f20;fill-opacity:1;fill-rule:nonzero;stroke:none;stroke-width:1.88913"
           id="path38069" /><g
           id="g38071"
           transform="translate(102.7663,37.5368)"
           style="stroke-width:1.88913"><path
             d="M 0,0 V -3.603 H 4.036 V -4.856 H 0 V -10.87 H -1.351 V 1.254 H 4.164 V 0 Z"
             style="fill:#231f20;fill-opacity:1;fill-rule:nonzero;stroke:none;stroke-width:1.88913"
             id="path38073" /></g><path
           d="m 110.484,26.667 h -1.351 v 12.124 h 1.351 z"
           style="fill:#231f20;fill-opacity:1;fill-rule:nonzero;stroke:none;stroke-width:1.88913"
           id="path38075" /><g
           id="g38077"
           transform="translate(112.944,38.7907)"
           style="stroke-width:1.88913"><path
             d="M 0,0 H 6.287 V -1.254 H 1.351 V -4.856 H 6.142 V -6.11 H 1.351 v -4.76 h 4.936 v -1.254 H 0 Z"
             style="fill:#231f20;fill-opacity:1;fill-rule:nonzero;stroke:none;stroke-width:1.88913"
             id="path38079" /></g><g
           id="g38081"
           transform="translate(123.861,27.9206)"
           style="stroke-width:1.88913"><path
             d="M 0,0 C 1.479,0 2.717,0.209 3.827,1.254 4.824,2.188 5.338,3.457 5.338,4.809 5.338,6.191 4.809,7.525 3.762,8.442 2.653,9.423 1.432,9.616 0,9.616 H -0.98 V 0 Z m -2.332,10.87 h 2.284 C 1.77,10.87 3.248,10.628 4.679,9.407 6.062,8.217 6.689,6.593 6.689,4.792 6.689,3.023 6.046,1.463 4.711,0.273 3.265,-1.013 1.817,-1.254 -0.08,-1.254 h -2.252 z"
             style="fill:#231f20;fill-opacity:1;fill-rule:nonzero;stroke:none;stroke-width:1.88913"
             id="path38083" /></g><g
           id="g38085"
           transform="translate(188.5153,77.6066)"
           style="stroke-width:1.88913"><path
             d="M 0,0 H 0.192 C 0.417,0 0.599,0.075 0.599,0.256 0.599,0.417 0.481,0.523 0.225,0.523 0.117,0.523 0.043,0.513 0,0.502 Z m -0.011,-0.983 h -0.406 v 1.752 c 0.16,0.021 0.385,0.053 0.674,0.053 0.331,0 0.48,-0.053 0.598,-0.138 C 0.961,0.609 1.036,0.48 1.036,0.31 c 0,-0.214 -0.16,-0.353 -0.362,-0.417 v -0.021 c 0.17,-0.054 0.255,-0.193 0.309,-0.428 0.053,-0.267 0.096,-0.363 0.128,-0.427 H 0.684 C 0.631,-0.919 0.599,-0.77 0.545,-0.556 0.514,-0.375 0.406,-0.289 0.182,-0.289 h -0.193 z m -1.079,0.908 c 0,-0.78 0.588,-1.4 1.367,-1.4 0.759,-0.01 1.336,0.62 1.336,1.389 0,0.78 -0.577,1.411 -1.356,1.411 -0.759,0 -1.347,-0.631 -1.347,-1.4 m 3.152,0 c 0,-0.983 -0.791,-1.763 -1.794,-1.763 -1.005,0 -1.806,0.78 -1.806,1.763 0,0.983 0.801,1.752 1.815,1.752 0.994,0 1.785,-0.769 1.785,-1.752"
             style="fill:#231f20;fill-opacity:1;fill-rule:nonzero;stroke:none;stroke-width:1.88913"
             id="path38087" /></g></g></g><text
       xml:space="preserve"
       style="font-style:normal;font-variant:normal;font-weight:normal;font-stretch:normal;font-size:3.70417px;line-height:1.15;font-family:Bahnschrift;-inkscape-font-specification:Bahnschrift;text-align:center;text-anchor:middle;opacity:1;fill:#231f20;fill-opacity:1;stroke:none;stroke-width:0.114565;stroke-linecap:square;stroke-linejoin:round;stroke-miterlimit:6;stroke-dasharray:none;stroke-dashoffset:0.03;stroke-opacity:1;paint-order:fill markers stroke"
       x="56.223808"
       y="80.384613"
       id="text39506"><tspan
         sodipodi:role="line"
         id="tspan39504"
         style="font-style:normal;font-variant:normal;font-weight:normal;font-stretch:normal;font-size:3.70417px;font-family:Bahnschrift;-inkscape-font-specification:Bahnschrift;fill:#231f20;fill-opacity:1;stroke:none;stroke-width:0.114565"
         x="56.223808"
         y="80.384613">Required Capacity (GPM)</tspan></text><text
       xml:space="preserve"
       style="font-style:normal;font-variant:normal;font-weight:normal;font-stretch:normal;font-size:3.70417px;line-height:1.15;font-family:Bahnschrift;-inkscape-font-specification:Bahnschrift;text-align:center;text-anchor:middle;fill:#231f20;fill-opacity:1;stroke:none;stroke-width:0.114565;stroke-linecap:square;stroke-linejoin:round;stroke-miterlimit:6;stroke-dasharray:none;stroke-dashoffset:0.03;stroke-opacity:1;paint-order:fill markers stroke"
       x="98.339958"
       y="133.00005"
       id="text39506-6"><tspan
         sodipodi:role="line"
         id="tspan39504-8"
         style="font-style:normal;font-variant:normal;font-weight:normal;font-stretch:normal;font-size:3.70417px;font-family:Bahnschrift;-inkscape-font-specification:Bahnschrift;fill:#231f20;fill-opacity:1;stroke:none;stroke-width:0.114565"
         x="98.339958"
         y="133.00005">Fittings used from Pump to Discharge in Size selected above</tspan></text><rect
       style="opacity:1;fill:#cccccc;fill-opacity:1;stroke:#afafae;stroke-width:0.114565;stroke-linecap:square;stroke-linejoin:round;stroke-miterlimit:6;stroke-dasharray:none;stroke-dashoffset:0.03;stroke-opacity:1;paint-order:fill markers stroke"
       id="rect41168"
       width="14.425323"
       height="7.3778572"
       x="80.732109"
       y="75.438309"
       rx="0.21153846"
       ry="0.21153845" /><text
       xml:space="preserve"
       style="font-style:normal;font-variant:normal;font-weight:normal;font-stretch:normal;font-size:3.70417px;line-height:1.15;font-family:Bahnschrift;-inkscape-font-specification:Bahnschrift;text-align:center;text-anchor:middle;fill:#231f20;fill-opacity:1;stroke:none;stroke-width:0.114565;stroke-linecap:square;stroke-linejoin:round;stroke-miterlimit:6;stroke-dasharray:none;stroke-dashoffset:0.03;stroke-opacity:1;paint-order:fill markers stroke"
       x="64.197357"
       y="91.105263"
       id="text39506-0"><tspan
         sodipodi:role="line"
         id="tspan39504-9"
         style="font-style:normal;font-variant:normal;font-weight:normal;font-stretch:normal;font-size:3.70417px;font-family:Bahnschrift;-inkscape-font-specification:Bahnschrift;fill:#231f20;fill-opacity:1;stroke:none;stroke-width:0.114565"
         x="64.197357"
         y="91.105263">Discharge Size</tspan></text><text
       xml:space="preserve"
       style="font-style:normal;font-variant:normal;font-weight:normal;font-stretch:normal;font-size:3.70417px;line-height:1.15;font-family:Bahnschrift;-inkscape-font-specification:Bahnschrift;text-align:center;text-anchor:middle;fill:#231f20;fill-opacity:1;stroke:none;stroke-width:0.114565;stroke-linecap:square;stroke-linejoin:round;stroke-miterlimit:6;stroke-dasharray:none;stroke-dashoffset:0.03;stroke-opacity:1;paint-order:fill markers stroke"
       x="69.614975"
       y="148.06903"
       id="text39506-0-9"><tspan
         sodipodi:role="line"
         id="tspan39504-9-6"
         style="font-style:normal;font-variant:normal;font-weight:normal;font-stretch:normal;font-size:3.70417px;font-family:Bahnschrift;-inkscape-font-specification:Bahnschrift;fill:#231f20;fill-opacity:1;stroke:none;stroke-width:0.114565"
         x="69.614975"
         y="148.06903">90° Elbows</tspan></text><text
       xml:space="preserve"
       style="font-style:normal;font-variant:normal;font-weight:normal;font-stretch:normal;font-size:3.70417px;line-height:1.15;font-family:Bahnschrift;-inkscape-font-specification:Bahnschrift;text-align:center;text-anchor:middle;fill:#231f20;fill-opacity:1;stroke:none;stroke-width:0.114565;stroke-linecap:square;stroke-linejoin:round;stroke-miterlimit:6;stroke-dasharray:none;stroke-dashoffset:0.03;stroke-opacity:1;paint-order:fill markers stroke"
       x="112.52293"
       y="148.06903"
       id="text39506-0-9-8"><tspan
         sodipodi:role="line"
         id="tspan39504-9-6-8"
         style="font-style:normal;font-variant:normal;font-weight:normal;font-stretch:normal;font-size:3.70417px;font-family:Bahnschrift;-inkscape-font-specification:Bahnschrift;fill:#231f20;fill-opacity:1;stroke:none;stroke-width:0.114565"
         x="112.52293"
         y="148.06903">Check Valves</tspan></text><text
       xml:space="preserve"
       style="font-style:normal;font-variant:normal;font-weight:normal;font-stretch:normal;font-size:3.70417px;line-height:1.15;font-family:Bahnschrift;-inkscape-font-specification:Bahnschrift;text-align:center;text-anchor:middle;fill:#231f20;fill-opacity:1;stroke:none;stroke-width:0.114565;stroke-linecap:square;stroke-linejoin:round;stroke-miterlimit:6;stroke-dasharray:none;stroke-dashoffset:0.03;stroke-opacity:1;paint-order:fill markers stroke"
       x="69.605934"
       y="159.2215"
       id="text39506-0-9-1"><tspan
         sodipodi:role="line"
         id="tspan39504-9-6-6"
         style="font-style:normal;font-variant:normal;font-weight:normal;font-stretch:normal;font-size:3.70417px;font-family:Bahnschrift;-inkscape-font-specification:Bahnschrift;fill:#231f20;fill-opacity:1;stroke:none;stroke-width:0.114565"
         x="69.605934"
         y="159.2215">45° Elbows</tspan></text><rect
       style="fill:#ffffff;fill-opacity:1;stroke:#afafae;stroke-width:0.114565;stroke-linecap:square;stroke-linejoin:round;stroke-miterlimit:6;stroke-dasharray:none;stroke-dashoffset:0.03;stroke-opacity:1;paint-order:fill markers stroke"
       id="rect41168-0"
       width="30.086382"
       height="7.3778572"
       x="80.732109"
       y="86.158958"
       rx="0.21153846"
       ry="0.21153845" /><rect
       style="fill:#ffffff;fill-opacity:1;stroke:#afafae;stroke-width:0.114565;stroke-linecap:square;stroke-linejoin:round;stroke-miterlimit:6;stroke-dasharray:none;stroke-dashoffset:0.03;stroke-opacity:1;paint-order:fill markers stroke"
       id="rect41168-0-5"
       width="30.086382"
       height="7.3778572"
       x="80.732109"
       y="96.130981"
       rx="0.21153846"
       ry="0.21153845" /><g
       id="g37509"
       transform="matrix(0.73118442,0,0,0.73118442,10.550249,11.470817)"
       style="stroke-width:1.36765"><rect
         style="fill:#a9a9a9;fill-opacity:1;stroke:none;stroke-width:0.156683;stroke-linecap:square;stroke-linejoin:round;stroke-miterlimit:6;stroke-dasharray:none;stroke-dashoffset:0.03;stroke-opacity:1;paint-order:fill markers stroke"
         id="rect10574-4-1-9"
         width="20.613348"
         height="10.131963"
         x="40.367767"
         y="48.534878"
         ry="0"
         rx="0" /><text
         xml:space="preserve"
         style="font-style:normal;font-variant:normal;font-weight:bold;font-stretch:normal;font-size:3.43958px;line-height:1.15;font-family:Bahnschrift;-inkscape-font-specification:'Bahnschrift Bold';fill:#ffffff;fill-opacity:1;stroke:#8a8a88;stroke-width:0.156685;stroke-linecap:square;stroke-linejoin:round;stroke-miterlimit:6;stroke-dasharray:none;stroke-dashoffset:0.03;stroke-opacity:1;paint-order:fill markers stroke"
         x="50.708031"
         y="54.809246"
         id="text15024-1-4-6"><tspan
           sodipodi:role="line"
           id="tspan15022-2-8-9"
           style="font-style:normal;font-variant:normal;font-weight:normal;font-stretch:normal;font-size:3.43958px;font-family:Bahnschrift;-inkscape-font-specification:Bahnschrift;stroke:none;stroke-width:0.156685"
           x="50.708031"
           y="54.809246">TDH</tspan></text><circle
         style="fill:#ffffff;fill-opacity:1;stroke:none;stroke-width:0.156685;stroke-linecap:square;stroke-linejoin:round;stroke-miterlimit:6;stroke-dasharray:none;stroke-dashoffset:0.03;stroke-opacity:1;paint-order:fill markers stroke"
         id="path29765-3-5"
         cx="45.292282"
         cy="53.600861"
         r="2.9104166" /><text
         xml:space="preserve"
         style="font-style:normal;font-variant:normal;font-weight:bold;font-stretch:normal;font-size:4.23333px;line-height:1.15;font-family:Bahnschrift;-inkscape-font-specification:'Bahnschrift Bold';fill:#254676;fill-opacity:1;stroke:none;stroke-width:0.156685;stroke-linecap:square;stroke-linejoin:round;stroke-miterlimit:6;stroke-dasharray:none;stroke-dashoffset:0.03;stroke-opacity:1;paint-order:fill markers stroke"
         x="44.198811"
         y="55.119114"
         id="text29769-2-1"><tspan
           sodipodi:role="line"
           id="tspan29767-0-3"
           style="fill:#254676;fill-opacity:1;stroke-width:0.156685"
           x="44.198811"
           y="55.119114">2</tspan></text></g><text
       xml:space="preserve"
       style="font-style:normal;font-variant:normal;font-weight:normal;font-stretch:normal;font-size:3.175px;line-height:1.15;font-family:Bahnschrift;-inkscape-font-specification:Bahnschrift;text-align:center;text-anchor:middle;opacity:1;fill:#231f20;fill-opacity:1;stroke:none;stroke-width:0.115;stroke-linecap:square;stroke-linejoin:round;stroke-miterlimit:6;stroke-dasharray:none;stroke-dashoffset:0.03;stroke-opacity:1;paint-order:fill markers stroke"
       x="87.99128"
       y="80.256622"
       id="text49579"><tspan
         sodipodi:role="line"
         id="tspan49577"
         style="fill:#231f20;fill-opacity:1;stroke-width:0.115"
         x="87.99128"
         y="80.256622">10.00</tspan></text><text
       xml:space="preserve"
       style="font-style:normal;font-variant:normal;font-weight:normal;font-stretch:normal;font-size:3.175px;line-height:1.15;font-family:Bahnschrift;-inkscape-font-specification:Bahnschrift;text-align:center;text-anchor:middle;fill:#231f20;fill-opacity:1;stroke:none;stroke-width:0.115;stroke-linecap:square;stroke-linejoin:round;stroke-miterlimit:6;stroke-dasharray:none;stroke-dashoffset:0.03;stroke-opacity:1;paint-order:fill markers stroke"
       x="87.99128"
       y="90.892204"
       id="text49579-4"><tspan
         sodipodi:role="line"
         id="tspan49577-7"
         style="fill:#231f20;fill-opacity:1;stroke-width:0.115"
         x="87.99128"
         y="90.892204">2&quot;</tspan></text><text
       xml:space="preserve"
       style="font-style:normal;font-variant:normal;font-weight:normal;font-stretch:normal;font-size:3.70417px;line-height:1.15;font-family:Bahnschrift;-inkscape-font-specification:Bahnschrift;text-align:center;text-anchor:middle;fill:#231f20;fill-opacity:1;stroke:none;stroke-width:0.114565;stroke-linecap:square;stroke-linejoin:round;stroke-miterlimit:6;stroke-dasharray:none;stroke-dashoffset:0.03;stroke-opacity:1;paint-order:fill markers stroke"
       x="66.623695"
       y="101.07729"
       id="text39506-0-3"><tspan
         sodipodi:role="line"
         id="tspan39504-9-5"
         style="font-style:normal;font-variant:normal;font-weight:normal;font-stretch:normal;font-size:3.70417px;font-family:Bahnschrift;-inkscape-font-specification:Bahnschrift;fill:#231f20;fill-opacity:1;stroke:none;stroke-width:0.114565"
         x="66.623695"
         y="101.07729">Type of Pipe</tspan></text><rect
       style="fill:#ffffff;fill-opacity:1;stroke:#afafae;stroke-width:0.114565;stroke-linecap:square;stroke-linejoin:round;stroke-miterlimit:6;stroke-dasharray:none;stroke-dashoffset:0.03;stroke-opacity:1;paint-order:fill markers stroke"
       id="rect41168-0-8"
       width="13.046491"
       height="7.3778572"
       x="81.04528"
       y="143.06248"
       rx="0.21153848"
       ry="0.21153845" /><rect
       style="fill:#ffffff;fill-opacity:1;stroke:#afafae;stroke-width:0.114565;stroke-linecap:square;stroke-linejoin:round;stroke-miterlimit:6;stroke-dasharray:none;stroke-dashoffset:0.03;stroke-opacity:1;paint-order:fill markers stroke"
       id="rect41168-0-8-6"
       width="13.046491"
       height="7.3778572"
       x="81.04528"
       y="155.55969"
       rx="0.21153848"
       ry="0.21153845" /><text
       xml:space="preserve"
       style="font-style:normal;font-variant:normal;font-weight:normal;font-stretch:normal;font-size:3.175px;line-height:1.15;font-family:Bahnschrift;-inkscape-font-specification:Bahnschrift;text-align:center;text-anchor:middle;fill:#231f20;fill-opacity:1;stroke:none;stroke-width:0.115;stroke-linecap:square;stroke-linejoin:round;stroke-miterlimit:6;stroke-dasharray:none;stroke-dashoffset:0.03;stroke-opacity:1;paint-order:fill markers stroke"
       x="91.06086"
       y="100.93535"
       id="text49579-4-6"><tspan
         sodipodi:role="line"
         id="tspan49577-7-9"
         style="fill:#231f20;fill-opacity:1;stroke-width:0.115"
         x="91.06086"
         y="100.93535">Plastic</tspan></text><path
       style="fill:#254676;stroke:#8a8a88;stroke-width:0.115001;stroke-linecap:square;stroke-linejoin:round;stroke-miterlimit:6;stroke-dashoffset:0.03;paint-order:fill markers stroke"
       d="M 30.735189,127.42132 H 182.69426"
       id="path862" /></g></svg>
